<svg width="106" height="124" viewBox="0 0 106 124" fill="none" xmlns="http://www.w3.org/2000/svg">
<path d="M64.165 74.05C63.2296 74.2781 62.2882 74.4804 61.3417 74.6567C56.2049 75.6236 50.931 75.6038 45.8017 74.5983C44.9033 74.4233 43.6317 74.1142 41.9925 73.6767L36.62 80.6592C23.3608 80.2333 18.3208 71.3492 18.3208 71.3492C18.3208 51.6267 26.96 35.6375 26.96 35.6375C35.5992 29.0283 43.8183 29.2092 43.8183 29.2092L46.1692 32.2717C46.3858 32.2413 46.6039 32.2218 46.8225 32.2133C51.3037 31.6193 55.8449 31.639 60.3208 32.2717L62.8992 29.2092C62.8992 29.2092 71.1242 29.0283 79.7575 35.6433C79.7575 35.6433 88.4025 51.6267 88.4025 71.3492C88.4025 71.3492 83.2983 80.2275 70.0392 80.6592L64.165 74.0442V74.05ZM41.7767 53.1667C38.2708 53.1667 35.5 55.7917 35.5 59C35.5 62.2083 38.3292 64.8333 41.7767 64.8333C45.2767 64.8333 48.0475 62.2083 48.0475 59C48.1058 55.7917 45.2825 53.1667 41.7767 53.1667ZM64.2233 53.1667C60.7233 53.1667 57.9525 55.7917 57.9525 59C57.9525 62.2083 60.7817 64.8333 64.2233 64.8333C67.7292 64.8333 70.5 62.2083 70.5 59C70.5 55.7917 67.7292 53.1667 64.2233 53.1667ZM105.5 123.167L76.3917 94H93.8333V12.3333H12.1667V94H76.3508L79.6758 105.667H12.1667C9.07247 105.667 6.10501 104.438 3.91709 102.25C1.72916 100.062 0.5 97.0942 0.5 94V12.3333C0.5 9.23914 1.72916 6.27168 3.91709 4.08375C6.10501 1.89583 9.07247 0.666664 12.1667 0.666664H93.8333C96.9275 0.666664 99.895 1.89583 102.083 4.08375C104.271 6.27168 105.5 9.23914 105.5 12.3333V123.167Z" fill="white"/>
</svg>
