<svg width="118" height="118" viewBox="0 0 118 118" fill="none" xmlns="http://www.w3.org/2000/svg">
<path d="M110.8 7.0775C106.524 2.80166 101.379 0.666664 95.3593 0.666664H22.5184C16.4984 0.666664 11.3534 2.80166 7.07758 7.0775C2.80175 11.3533 0.666748 16.4983 0.666748 22.5183V95.3592C0.666748 101.379 2.80175 106.524 7.07758 110.8C11.3534 115.076 16.4984 117.211 22.5184 117.211H39.5167C40.6251 117.211 41.4593 117.17 42.0192 117.094C42.6708 116.964 43.2589 116.616 43.6876 116.108C44.2417 115.525 44.5218 114.679 44.5218 113.571L44.4809 108.408C44.4576 105.118 44.4459 102.517 44.4459 100.592L42.6959 100.895C41.5876 101.099 40.1876 101.187 38.4901 101.163C36.7208 101.131 34.9571 100.953 33.2167 100.632C31.3641 100.29 29.6201 99.5104 28.1301 98.3575C26.5696 97.177 25.4058 95.5492 24.7934 93.6908L24.0351 91.9408C23.3959 90.5604 22.5929 89.2619 21.6434 88.0733C20.5584 86.6558 19.4559 85.6992 18.3417 85.1917L17.8167 84.8125C17.4507 84.5503 17.1177 84.2448 16.8251 83.9025C16.5456 83.5848 16.3155 83.227 16.1426 82.8408C15.9909 82.485 16.1192 82.1933 16.5217 81.9658C16.9301 81.7325 17.6592 81.6217 18.7267 81.6217L20.2434 81.855C21.2526 82.0533 22.5067 82.66 23.9942 83.6692C25.4996 84.6955 26.7571 86.0446 27.6751 87.6183C28.8417 89.6892 30.2418 91.27 31.8868 92.3608C33.5317 93.4458 35.1884 93.9942 36.8568 93.9942C38.5251 93.9942 39.9659 93.8658 41.1851 93.615C42.3641 93.3712 43.5097 92.9874 44.5976 92.4717C45.0526 89.0883 46.2892 86.475 48.3134 84.655C45.6906 84.3979 43.0912 83.9415 40.5376 83.29C38.0455 82.6054 35.6489 81.6119 33.4034 80.3325C31.054 79.0534 28.9789 77.3251 27.2959 75.2458C25.6801 73.2217 24.3501 70.5675 23.3117 67.2833C22.2792 63.9933 21.7601 60.1958 21.7601 55.8967C21.7601 49.7775 23.7551 44.5683 27.7509 40.2633C25.8842 35.6667 26.0592 30.5042 28.2817 24.7933C29.7518 24.3325 31.9276 24.6767 34.8092 25.8142C37.6909 26.9517 39.8026 27.9258 41.1442 28.7308C42.4859 29.5475 43.5592 30.23 44.3701 30.7842C49.1124 29.4644 54.0134 28.801 58.9359 28.8125C63.9468 28.8125 68.8001 29.4717 73.5076 30.7842L76.3893 28.9642C78.6058 27.6333 80.9438 26.5161 83.3717 25.6275C86.0551 24.6125 88.0968 24.3383 89.5201 24.7933C91.7951 30.51 91.9934 35.6667 90.1209 40.2692C94.1168 44.5683 96.1176 49.7775 96.1176 55.9025C96.1176 60.2017 95.5984 64.0108 94.5601 67.3183C93.5276 70.6317 92.1859 73.2858 90.5409 75.2867C88.8959 77.2875 86.8484 78.9617 84.3984 80.3325C81.9484 81.6975 79.5684 82.6833 77.2642 83.29C74.7109 83.9437 72.1114 84.4019 69.4884 84.6608C72.1134 86.9358 73.4317 90.5233 73.4317 95.4292V113.571C73.4317 114.428 73.5542 115.122 73.8109 115.653C73.9289 115.909 74.0971 116.138 74.3055 116.328C74.514 116.517 74.7584 116.663 75.0242 116.756C75.5843 116.954 76.0742 117.083 76.5059 117.129C76.9376 117.188 77.5559 117.205 78.3609 117.205H95.3593C101.379 117.205 106.524 115.07 110.8 110.794C115.07 106.524 117.211 101.373 117.211 95.3533V22.5183C117.211 16.4983 115.07 11.3533 110.794 7.0775H110.8Z" fill="white"/>
</svg>
